<svg width="64" height="64" viewBox="0 -0.5 25 25" fill="none" xmlns="http://www.w3.org/2000/svg"><path clip-rule="evenodd" d="M14.924 7.281a2.279 2.279 0 11-4.558-.004 2.279 2.279 0 014.558.004zm.073 5.638h-4.7a3.042 3.042 0 000 6.081h4.7a3.042 3.042 0 000-6.081v0zm5.691-3.895a1.743 1.743 0 11-3.486-.002 1.743 1.743 0 013.486.002v0zm-16.354 0a1.743 1.743 0 103.486 0 1.743 1.743 0 00-3.486 0v0z" stroke="#fff" stroke-width="1.5" stroke-linecap="round" stroke-linejoin="round"/><path d="M19.437 12.839a.75.75 0 000 1.5v-1.5zm1.307.75l.015-.75h-.015v.75zm0 4.651v.75h.015l-.015-.75zm-1.307-.75a.75.75 0 000 1.5v-1.5zM5.585 14.339a.75.75 0 000-1.5v1.5zm-1.307-.75v-.75h-.016l.016.75zm0 4.651l-.016.75h.016v-.75zm1.307.75a.75.75 0 000-1.5v1.5zm13.852-4.651h1.307v-1.5h-1.307v1.5zm1.291 0a1.576 1.576 0 011.543 1.575h1.5a3.076 3.076 0 00-3.012-3.075l-.03 1.5zm1.543 1.575c0 .858-.685 1.558-1.543 1.576l.031 1.5a3.076 3.076 0 003.012-3.075h-1.5zm-1.527 1.576h-1.307v1.5h1.307v-1.5zm-15.16-4.651H4.279v1.5h1.307v-1.5zm-1.322 0a3.076 3.076 0 00-3.012 3.075h1.5c0-.857.686-1.557 1.543-1.575l-.03-1.5zM1.25 15.914a3.076 3.076 0 003.012 3.076l.031-1.5a1.576 1.576 0 01-1.543-1.575h-1.5zm3.028 3.076h1.307v-1.5H4.278v1.5z" fill="#fff"/></svg>